HIERARCHY
ROOT Hips
{
  OFFSET -15.105 27.711 -232.810
  CHANNELS 6 Xposition Yposition Zposition Zrotation Xrotation Yrotation
  JOINT LeftUpLeg
  {
    OFFSET 8.131 -6.351 4.048
    CHANNELS 6 Xposition Yposition Zposition Zrotation Xrotation Yrotation
    JOINT LeftLeg
    {
      OFFSET -0.000 -50.141 0.000
      CHANNELS 6 Xposition Yposition Zposition Zrotation Xrotation Yrotation
      JOINT LeftFoot
      {
        OFFSET -0.000 -41.454 -0.000
        CHANNELS 6 Xposition Yposition Zposition Zrotation Xrotation Yrotation
        End Site
        {
          OFFSET 0.000 -8.360 4.826
        }
      }
    }
  }
  JOINT RightUpLeg
  {
    OFFSET -7.646 -7.219 3.925
    CHANNELS 6 Xposition Yposition Zposition Zrotation Xrotation Yrotation
    JOINT RightLeg
    {
      OFFSET -0.000 -48.726 0.000
      CHANNELS 6 Xposition Yposition Zposition Zrotation Xrotation Yrotation
      JOINT RightFoot
      {
        OFFSET -0.000 -43.311 -0.000
        CHANNELS 6 Xposition Yposition Zposition Zrotation Xrotation Yrotation
        End Site
        {
          OFFSET 0.000 -8.108 4.681
        }
      }
    }
  }
  JOINT Spine
  {
    OFFSET 0.000 5.340 -5.340
    CHANNELS 6 Xposition Yposition Zposition Zrotation Xrotation Yrotation
    JOINT LeftShoulder
    {
      OFFSET -0.000 35.352 0.000
      CHANNELS 6 Xposition Yposition Zposition Zrotation Xrotation Yrotation
      JOINT LeftArm
      {
        OFFSET 19.524 0.000 -0.000
        CHANNELS 6 Xposition Yposition Zposition Zrotation Xrotation Yrotation
        JOINT LeftForeArm
        {
          OFFSET 24.217 0.000 0.000
          CHANNELS 6 Xposition Yposition Zposition Zrotation Xrotation Yrotation
          JOINT LeftHand
          {
            OFFSET 25.492 -0.000 -0.000
            CHANNELS 6 Xposition Yposition Zposition Zrotation Xrotation Yrotation
            JOINT LeftHandThumb1
            {
            OFFSET 4.970 -0.620 3.390
            CHANNELS 6 Xposition Yposition Zposition Zrotation Xrotation Yrotation
              JOINT LeftHandThumb2
              {
              OFFSET 2.150 -0.000 0.000
              CHANNELS 6 Xposition Yposition Zposition Zrotation Xrotation Yrotation
                JOINT LeftHandThumb3
                {
                OFFSET 2.200 -0.000 0.000
                CHANNELS 6 Xposition Yposition Zposition Zrotation Xrotation Yrotation
                  JOINT LeftHandThumb4
                  {
                  OFFSET 1.700 -0.000 0.000
                  CHANNELS 6 Xposition Yposition Zposition Zrotation Xrotation Yrotation
                  }
                }
              }
            }
            JOINT LeftHandIndex1
            {
            OFFSET 8.730 0.680 2.070
            CHANNELS 6 Xposition Yposition Zposition Zrotation Xrotation Yrotation
              JOINT LeftHandIndex2
              {
              OFFSET 2.670 -0.000 0.000
              CHANNELS 6 Xposition Yposition Zposition Zrotation Xrotation Yrotation
                JOINT LeftHandIndex3
                {
                OFFSET 2.130 -0.000 0.000
                CHANNELS 6 Xposition Yposition Zposition Zrotation Xrotation Yrotation
                  JOINT LeftHandIndex4
                  {
                  OFFSET 1.800 -0.000 0.000
                  CHANNELS 6 Xposition Yposition Zposition Zrotation Xrotation Yrotation
                  }
                }
              }
            }
            JOINT LeftHandMiddle1
            {
            OFFSET 9.220 0.670 0.550
            CHANNELS 6 Xposition Yposition Zposition Zrotation Xrotation Yrotation
              JOINT LeftHandMiddle2
              {
              OFFSET 2.660 -0.000 0.000
              CHANNELS 6 Xposition Yposition Zposition Zrotation Xrotation Yrotation
                JOINT LeftHandMiddle3
                {
                OFFSET 2.280 -0.000 0.000
                CHANNELS 6 Xposition Yposition Zposition Zrotation Xrotation Yrotation
                  JOINT LeftHandMiddle4
                  {
                  OFFSET 1.500 -0.000 0.000
                  CHANNELS 6 Xposition Yposition Zposition Zrotation Xrotation Yrotation
                  }
                }
              }
            }
            JOINT LeftHandRing1
            {
            OFFSET 9.250 0.670 -1.130
            CHANNELS 6 Xposition Yposition Zposition Zrotation Xrotation Yrotation
              JOINT LeftHandRing2
              {
              OFFSET 2.470 -0.000 0.000
              CHANNELS 6 Xposition Yposition Zposition Zrotation Xrotation Yrotation
                JOINT LeftHandRing3
                {
                OFFSET 2.210 -0.000 0.000
                CHANNELS 6 Xposition Yposition Zposition Zrotation Xrotation Yrotation
                  JOINT LeftHandRing4
                  {
                  OFFSET 1.800 -0.000 0.000
                  CHANNELS 6 Xposition Yposition Zposition Zrotation Xrotation Yrotation
                  }
                }
              }
            }
            JOINT LeftHandPinky1
            {
            OFFSET 9.350 0.660 -2.720
            CHANNELS 6 Xposition Yposition Zposition Zrotation Xrotation Yrotation
              JOINT LeftHandPinky2
              {
              OFFSET 1.630 -0.000 0.000
              CHANNELS 6 Xposition Yposition Zposition Zrotation Xrotation Yrotation
                JOINT LeftHandPinky3
                {
                OFFSET 1.710 -0.000 0.000
                CHANNELS 6 Xposition Yposition Zposition Zrotation Xrotation Yrotation
                  JOINT LeftHandPinky4
                  {
                  OFFSET 1.800 -0.000 0.000
                  CHANNELS 6 Xposition Yposition Zposition Zrotation Xrotation Yrotation
                  }
                }
              }
            }
          }
        }
      }
    }
    JOINT RightShoulder
    {
      OFFSET -0.000 35.352 0.000
      CHANNELS 6 Xposition Yposition Zposition Zrotation Xrotation Yrotation
      JOINT RightArm
      {
        OFFSET -20.359 0.000 -0.000
        CHANNELS 6 Xposition Yposition Zposition Zrotation Xrotation Yrotation
        JOINT RightForeArm
        {
          OFFSET -22.934 0.000 0.000
          CHANNELS 6 Xposition Yposition Zposition Zrotation Xrotation Yrotation
          JOINT RightHand
          {
            OFFSET -26.017 0.000 -0.000
            CHANNELS 6 Xposition Yposition Zposition Zrotation Xrotation Yrotation
            JOINT RightHandThumb1
            {
            OFFSET -4.970 -0.620 3.390
            CHANNELS 6 Xposition Yposition Zposition Zrotation Xrotation Yrotation
              JOINT RightHandThumb2
              {
              OFFSET -2.150 0.000 0.000
              CHANNELS 6 Xposition Yposition Zposition Zrotation Xrotation Yrotation
                JOINT RightHandThumb3
                {
                OFFSET -2.200 0.000 0.000
                CHANNELS 6 Xposition Yposition Zposition Zrotation Xrotation Yrotation
                  JOINT RightHandThumb4
                  {
                  OFFSET -1.700 0.000 0.000
                  CHANNELS 6 Xposition Yposition Zposition Zrotation Xrotation Yrotation
                  }
                }
              }
            }
            JOINT RightHandIndex1
            {
            OFFSET -8.730 0.680 2.070
            CHANNELS 6 Xposition Yposition Zposition Zrotation Xrotation Yrotation
              JOINT RightHandIndex2
              {
              OFFSET -2.670 0.000 0.000
              CHANNELS 6 Xposition Yposition Zposition Zrotation Xrotation Yrotation
                JOINT RightHandIndex3
                {
                OFFSET -2.130 0.000 0.000
                CHANNELS 6 Xposition Yposition Zposition Zrotation Xrotation Yrotation
                  JOINT RightHandIndex4
                  {
                  OFFSET -1.800 0.000 0.000
                  CHANNELS 6 Xposition Yposition Zposition Zrotation Xrotation Yrotation
                  }
                }
              }
            }
            JOINT RightHandMiddle1
            {
            OFFSET -9.220 0.670 0.550
            CHANNELS 6 Xposition Yposition Zposition Zrotation Xrotation Yrotation
              JOINT RightHandMiddle2
              {
              OFFSET -2.660 0.000 0.000
              CHANNELS 6 Xposition Yposition Zposition Zrotation Xrotation Yrotation
                JOINT RightHandMiddle3
                {
                OFFSET -2.280 0.000 0.000
                CHANNELS 6 Xposition Yposition Zposition Zrotation Xrotation Yrotation
                  JOINT RightHandMiddle4
                  {
                  OFFSET -1.500 0.000 0.000
                  CHANNELS 6 Xposition Yposition Zposition Zrotation Xrotation Yrotation
                  }
                }
              }
            }
            JOINT RightHandRing1
            {
            OFFSET -9.250 0.670 -1.130
            CHANNELS 6 Xposition Yposition Zposition Zrotation Xrotation Yrotation
              JOINT RightHandRing2
              {
              OFFSET -2.470 0.000 0.000
              CHANNELS 6 Xposition Yposition Zposition Zrotation Xrotation Yrotation
                JOINT RightHandRing3
                {
                OFFSET -2.210 0.000 0.000
                CHANNELS 6 Xposition Yposition Zposition Zrotation Xrotation Yrotation
                  JOINT RightHandRing4
                  {
                  OFFSET -1.800 0.000 0.000
                  CHANNELS 6 Xposition Yposition Zposition Zrotation Xrotation Yrotation
                  }
                }
              }
            }
            JOINT RightHandPinky1
            {
            OFFSET -9.350 0.660 -2.720
            CHANNELS 6 Xposition Yposition Zposition Zrotation Xrotation Yrotation
              JOINT RightHandPinky2
              {
              OFFSET -1.630 0.000 0.000
              CHANNELS 6 Xposition Yposition Zposition Zrotation Xrotation Yrotation
                JOINT RightHandPinky3
                {
                OFFSET -1.710 0.000 0.000
                CHANNELS 6 Xposition Yposition Zposition Zrotation Xrotation Yrotation
                  JOINT RightHandPinky4
                  {
                  OFFSET -1.800 0.000 0.000
                  CHANNELS 6 Xposition Yposition Zposition Zrotation Xrotation Yrotation
                  }
                }
              }
            }
          }
        }
      }
    }
    JOINT Neck
    {
      OFFSET -0.000 35.352 0.000
      CHANNELS 6 Xposition Yposition Zposition Zrotation Xrotation Yrotation
      JOINT Head
      {
        OFFSET -0.000 18.200 -0.000
        CHANNELS 6 Xposition Yposition Zposition Zrotation Xrotation Yrotation
        End Site
        {
          OFFSET -0.000 0.073 -0.000
        }
      }
    }
  }
}
MOTION
Frames:	4
Frame Time:	0.0333333
-54.4009 25.7995 -210.922 5.7933 13.7324 -38.8927 8.73373 -6.08728 3.71608 -1.94075 -31.2338 -6.05391 2.38419e-05 -49.2639 -3.57628e-05 4.38196 15.3507 -1.59365e-05 -2.38419e-05 -42.0757 -1.19209e-05 -15.9342 -20.8411 -14.5275 -7.77856 -8.31716 3.11087 -8.35715 -25.1889 -9.58023 0 -47.3349 -2.38419e-05 14.1728 47.3698 -7.56373e-06 0 -45.4973 -5.96046e-06 -8.36404 -27.5854 -8.21961 0 5.54506 -5.54506 2.31879 -18.4622 -2.00428 0 35.3514 0 -39.8888 1.53679e-05 -1.9976 19.38 2.98023e-05 -1.19209e-05 -25.5776 39.5772 -0.562285 23.1741 0 1.49012e-06 5.13301e-05 -2.23311e-05 -106.869 25.2768 -1.19209e-05 -3.57628e-05 6.90519 -0.0209018 -13.7079 0.0062 0.0497 0.0339 -30.3315 0 0 0 0.0215 0 0 -30.3315 0 0 0.022 0 0 -30.3315 0 0 0.017 0 0 0 0 -0.0068 0.0873 0.0207 -30.3315 0 0 0 0.0267 0 -53.9227 0 0 0 0.0213 0 -60.6631 0 0 0 0.018 0 0 0 0 -0.0067 0.0922 0.0055 -30.3315 0 0 0 0.0266 0 -53.9227 0 0 0 0.0228 0 -60.6631 0 0 0 0.015 0 0 0 0 -0.0067 0.0925 -0.0113 -30.3315 0 0 0 0.0247 0 -53.9227 0 0 0 0.0221 0 -60.6631 0 0 0 0.018 0 0 0 0 -0.0066 0.0935 -0.0272 -30.3315 0 0 0 0.0163 0 -53.9227 0 0 0 0.0171 0 -60.6631 0 0 0 0.018 0 0 0 0 0 35.3514 0 25.1987 1.70755e-06 2.03028 -19.068 1.19209e-05 1.19209e-05 33.9021 50.5906 42.1926 -27.4256 -1.04308e-05 -2.38419e-05 -5.14876e-06 7.68396e-06 74.0755 -21.7263 1.3411e-05 5.96046e-06 86.9622 -1.67834 -40.3871 -0.0062 0.0497 0.0339 0 0 0 0 0.0215 0 0 0 0 0 0.022 0 0 0 0 0 0.017 0 0 0 0 0.0068 0.0873 0.0207 0 0 0 0 0.0267 0 0 0 0 0 0.0213 0 0 0 0 0 0.018 0 0 0 0 0.0067 0.0922 0.0055 0 0 0 0 0.0266 0 0 0 0 0 0.0228 0 0 0 0 0 0.015 0 0 0 0 0.0067 0.0925 -0.0113 0 0 0 0 0.0247 0 0 0 0 0 0.0221 0 0 0 0 0 0.018 0 0 0 0 0.0066 0.0935 -0.0272 0 0 0 0 0.0163 0 0 0 0 0 0.0171 0 0 0 0 0 0.018 0 0 0 0 0 35.3514 0 -5.54823 22.2574 2.10712 -1.19209e-05 17.6532 -1.19209e-05 1.10991e-05 -1.19528e-05 -3.41509e-06 
-54.4009 25.7995 -210.922 5.7933 13.7324 -38.8927 8.73373 -6.08728 3.71608 -1.94075 -31.2338 -6.05391 2.38419e-05 -49.2639 -3.57628e-05 4.38196 15.3507 -1.59365e-05 -2.38419e-05 -42.0757 -1.19209e-05 -15.9342 -20.8411 -14.5275 -7.77856 -8.31716 3.11087 -8.35715 -25.1889 -9.58023 0 -47.3349 -2.38419e-05 14.1728 47.3698 -7.56373e-06 0 -45.4973 -5.96046e-06 -8.36404 -27.5854 -8.21961 0 5.54506 -5.54506 2.31879 -18.4622 -2.00428 0 35.3514 0 -39.8888 1.53679e-05 -1.9976 19.38 2.98023e-05 -1.19209e-05 -25.5776 39.5772 -0.562285 23.1741 0 1.49012e-06 5.13301e-05 -2.23311e-05 -106.869 25.2768 -1.19209e-05 -3.57628e-05 6.90519 -0.0209018 -13.7079 0.0062 0.0497 0.0339 -30.3315 0 0 0 0.0215 0 0 -30.3315 0 0 0.022 0 0 -30.3315 0 0 0.017 0 0 0 0 -0.0068 0.0873 0.0207 -30.3315 0 0 0 0.0267 0 -53.9227 0 0 0 0.0213 0 -60.6631 0 0 0 0.018 0 0 0 0 -0.0067 0.0922 0.0055 -30.3315 0 0 0 0.0266 0 -53.9227 0 0 0 0.0228 0 -60.6631 0 0 0 0.015 0 0 0 0 -0.0067 0.0925 -0.0113 -30.3315 0 0 0 0.0247 0 -53.9227 0 0 0 0.0221 0 -60.6631 0 0 0 0.018 0 0 0 0 -0.0066 0.0935 -0.0272 -30.3315 0 0 0 0.0163 0 -53.9227 0 0 0 0.0171 0 -60.6631 0 0 0 0.018 0 0 0 0 0 35.3514 0 25.1987 1.70755e-06 2.03028 -19.068 1.19209e-05 1.19209e-05 33.9021 50.5906 42.1926 -27.4256 -1.04308e-05 -2.38419e-05 -5.14876e-06 7.68396e-06 74.0755 -21.7263 1.3411e-05 5.96046e-06 86.9622 -1.67834 -40.3871 -0.0062 0.0497 0.0339 0 0 0 0 0.0215 0 0 0 0 0 0.022 0 0 0 0 0 0.017 0 0 0 0 0.0068 0.0873 0.0207 0 0 0 0 0.0267 0 0 0 0 0 0.0213 0 0 0 0 0 0.018 0 0 0 0 0.0067 0.0922 0.0055 0 0 0 0 0.0266 0 0 0 0 0 0.0228 0 0 0 0 0 0.015 0 0 0 0 0.0067 0.0925 -0.0113 0 0 0 0 0.0247 0 0 0 0 0 0.0221 0 0 0 0 0 0.018 0 0 0 0 0.0066 0.0935 -0.0272 0 0 0 0 0.0163 0 0 0 0 0 0.0171 0 0 0 0 0 0.018 0 0 0 0 0 35.3514 0 -5.54823 22.2574 2.10712 -1.19209e-05 17.6532 -1.19209e-05 1.10991e-05 -1.19528e-05 -3.41509e-06 
-54.7166 25.6475 -210.419 5.03437 12.8488 -38.6692 8.78741 -6.05049 3.59 -2.14412 -30.0911 -6.19486 4.76837e-05 -49.1102 0 4.53896 15.8278 8.8742e-06 -2.38419e-05 -42.1967 1.19209e-05 -16.057 -20.4545 -14.571 -7.78055 -8.48374 2.96153 -8.57019 -24.8337 -9.17329 3.57628e-05 -46.7547 1.19209e-05 14.2821 48.193 1.02459e-05 2.38419e-05 -45.8139 0 -7.72729 -25.7587 -7.48891 -2.38419e-05 5.5908 -5.59077 2.53134 -17.1865 -2.31092 0 35.3514 -1.19209e-05 -39.9889 1.19528e-05 -2.14963 19.3747 0 0 -25.5624 38.6017 -0.62946 23.1387 1.19209e-05 -5.96046e-06 1.40528e-05 2.57594e-06 -107.322 25.0415 2.38419e-05 0 4.16423 0.118629 -13.7063 0.0062 0.0497 0.0339 -36.6166 0 0 0 0.0215 0 0 -36.6166 0 0 0.022 0 0 -36.6166 0 0 0.017 0 0 0 0 -0.0068 0.0873 0.0207 -36.6166 0 0 0 0.0267 0 -65.0961 0 0 0 0.0213 0 -73.2331 0 0 0 0.018 0 0 0 0 -0.0067 0.0922 0.0055 -36.6166 0 0 0 0.0266 0 -65.0961 0 0 0 0.0228 0 -73.2331 0 0 0 0.015 0 0 0 0 -0.0067 0.0925 -0.0113 -36.6166 0 0 0 0.0247 0 -65.0961 0 0 0 0.0221 0 -73.2331 0 0 0 0.018 0 0 0 0 -0.0066 0.0935 -0.0272 -36.6166 0 0 0 0.0163 0 -65.0961 0 0 0 0.0171 0 -73.2331 0 0 0 0.018 0 0 0 0 0 35.3514 -1.19209e-05 24.3754 -7.68396e-06 2.19283 -18.993 2.38419e-05 -3.57628e-05 33.5419 50.2501 43.4506 -27.5676 8.9407e-06 2.38419e-05 -3.21106e-05 1.36604e-05 73.9811 -21.584 5.96046e-06 -5.96046e-06 87.0539 -0.451425 -35.49 -0.0062 0.0497 0.0339 0 0 0 0 0.0215 0 0 0 0 0 0.022 0 0 0 0 0 0.017 0 0 0 0 0.0068 0.0873 0.0207 0 0 0 0 0.0267 0 0 0 0 0 0.0213 0 0 0 0 0 0.018 0 0 0 0 0.0067 0.0922 0.0055 0 0 0 0 0.0266 0 0 0 0 0 0.0228 0 0 0 0 0 0.015 0 0 0 0 0.0067 0.0925 -0.0113 0 0 0 0 0.0247 0 0 0 0 0 0.0221 0 0 0 0 0 0.018 0 0 0 0 0.0066 0.0935 -0.0272 0 0 0 0 0.0163 0 0 0 0 0 0.0171 0 0 0 0 0 0.018 0 0 0 0 0 35.3514 -1.19209e-05 -5.86293 21.8289 2.18662 2.38419e-05 17.7464 -1.19209e-05 1.10991e-05 -1.36604e-05 1.70755e-06 
-54.9596 25.519 -210.031 4.35539 12.0356 -38.3648 8.83985 -6.03234 3.50209 -2.37963 -29.0443 -6.53015 1.19209e-05 -48.9727 0 4.64975 16.1752 0 -4.76837e-05 -42.289 0 -16.1892 -20.0587 -14.6182 -7.8001 -8.64498 2.77989 -10.4387 -23.9918 -10.2331 -1.19209e-05 -45.9233 0 16.3854 48.0883 1.27813e-05 0 -46.1415 0 -6.52321 -23.009 -6.23382 0 5.63167 -5.63161 2.70695 -16.0298 -2.45513 1.19209e-05 35.3514 -1.19209e-05 -40.1291 2.04906e-05 -2.24213 19.3796 -5.96046e-06 2.38419e-05 -25.7116 39.6177 -0.479704 23.0622 2.38419e-05 -8.19564e-06 1.19684e-05 -1.09026e-05 -107.643 25.3953 -2.38419e-05 -2.38419e-05 5.75897 0.0340105 -13.9374 0.0062 0.0497 0.0339 -41.3461 0 0 0 0.0215 0 0 -41.3461 0 0 0.022 0 0 -41.3461 0 0 0.017 0 0 0 0 -0.0068 0.0873 0.0207 -41.3461 0 0 0 0.0267 0 -73.5042 0 0 0 0.0213 0 -82.6922 0 0 0 0.018 0 0 0 0 -0.0067 0.0922 0.0055 -41.3461 0 0 0 0.0266 0 -73.5042 0 0 0 0.0228 0 -82.6922 0 0 0 0.015 0 0 0 0 -0.0067 0.0925 -0.0113 -41.3461 0 0 0 0.0247 0 -73.5042 0 0 0 0.0221 0 -82.6922 0 0 0 0.018 0 0 0 0 -0.0066 0.0935 -0.0272 -41.3461 0 0 0 0.0163 0 -73.5042 0 0 0 0.0171 0 -82.6922 0 0 0 0.018 0 0 0 0 1.19209e-05 35.3514 -1.19209e-05 24.1173 -1.79292e-05 2.28318 -19.031 2.38419e-05 1.19209e-05 32.8329 49.7739 44.5648 -27.685 -2.98023e-06 0 -1.74793e-05 1.02453e-05 74.2693 -21.4623 3.57628e-05 5.96046e-06 87.0758 0.311388 -31.1101 -0.0062 0.0497 0.0339 0 0 0 0 0.0215 0 0 0 0 0 0.022 0 0 0 0 0 0.017 0 0 0 0 0.0068 0.0873 0.0207 0 0 0 0 0.0267 0 0 0 0 0 0.0213 0 0 0 0 0 0.018 0 0 0 0 0.0067 0.0922 0.0055 0 0 0 0 0.0266 0 0 0 0 0 0.0228 0 0 0 0 0 0.015 0 0 0 0 0.0067 0.0925 -0.0113 0 0 0 0 0.0247 0 0 0 0 0 0.0221 0 0 0 0 0 0.018 0 0 0 0 0.0066 0.0935 -0.0272 0 0 0 0 0.0163 0 0 0 0 0 0.0171 0 0 0 0 0 0.018 0 0 0 0 1.19209e-05 35.3514 -1.19209e-05 -6.11174 21.5312 2.25044 0 17.8159 -1.19209e-05 9.39151e-06 -9.39151e-06 -1.70755e-06 
